<svg xmlns="http://www.w3.org/2000/svg" viewBox="0 0 200 48" fill="none">
  <g>
    <rect x="2" y="8" width="4" height="32" fill="#F5F0E8"/>
    <rect x="10" y="8" width="4" height="20" fill="#F5F0E8"/>
    <rect x="10" y="32" width="4" height="8" fill="#F5F0E8"/>
    <path d="M14 28 L22 8 L30 28" stroke="#F5F0E8" stroke-width="4" stroke-linejoin="round" fill="none"/>
    <path d="M16.5 22 H27.5" stroke="#F5F0E8" stroke-width="3"/>
    <rect x="34" y="8" width="4" height="32" fill="#F5F0E8"/>
    <path d="M38 24 Q48 8 58 24 Q48 40 38 24Z" fill="#C9A84C"/>
    <rect x="62" y="8" width="4" height="32" fill="#F5F0E8"/>
    <rect x="70" y="8" width="4" height="32" fill="#F5F0E8"/>
    <path d="M74 16 Q84 8 94 16" stroke="#F5F0E8" stroke-width="4" fill="none"/>
    <path d="M74 32 Q84 40 94 32" stroke="#F5F0E8" stroke-width="4" fill="none"/>
    <rect x="94" y="8" width="4" height="32" fill="#F5F0E8"/>
  </g>
  <text x="104" y="32" font-family="Georgia, serif" font-size="18" font-weight="700" letter-spacing="2" fill="#F5F0E8">WOOD</text>
</svg>